<svg width="188" height="179" viewBox="0 0 188 179" fill="none" xmlns="http://www.w3.org/2000/svg">
<path d="M31.4363 84.2503C31.9066 74.7675 33.66 65.7931 36.6964 57.3271C39.7328 48.8611 43.9347 41.0384 49.302 33.8589C55.7553 40.4781 61.0465 48.2283 65.1758 57.1093C69.305 65.9902 71.7086 75.0373 72.3864 84.2503H31.4363ZM176.614 84.2503C177.292 75.0373 179.553 66.132 183.399 57.5346C187.245 48.9372 192.678 41.2632 199.698 34.5125C205.072 41.6574 209.278 49.4387 212.314 57.8562C215.35 66.2738 217.097 75.0718 217.553 84.2503H176.614ZM49.302 144.487C43.9278 137.343 39.7916 129.637 36.8935 121.372C33.9885 113.107 32.1729 104.232 31.4467 94.7497H72.3864C71.7086 103.97 69.305 112.875 65.1758 121.465C61.0465 130.056 55.7553 137.73 49.302 144.487ZM199.698 144.487C192.678 137.73 187.245 130.052 183.399 121.455C179.553 112.858 177.292 103.956 176.614 94.7497H217.553C217.09 103.928 215.344 112.726 212.314 121.144C209.285 129.561 205.079 137.343 199.698 144.487ZM83.0208 84.2503C82.3014 73.1352 79.5936 62.7014 74.8972 52.9489C70.2077 43.1964 63.872 34.35 55.8902 26.4096C63.9204 17.7154 73.3859 10.7261 84.2865 5.44175C95.1872 0.157418 106.842 -2.84096 119.25 -3.55338V84.2503H83.0208ZM129.75 84.2503V-3.55338C142.158 -2.83404 153.813 0.164334 164.714 5.44175C175.614 10.7192 185.083 17.7085 193.12 26.4096C184.959 33.9142 178.575 42.65 173.968 52.6169C169.362 62.5907 166.699 73.1386 165.979 84.2606L129.75 84.2503ZM119.25 182.553C106.537 181.841 94.8068 178.763 84.0583 173.32C73.3098 167.89 63.9169 160.828 55.8798 152.134C64.0414 144.498 70.4255 135.838 75.032 126.155C79.6385 116.472 82.3014 106.003 83.0208 94.7497H119.25V182.553ZM129.75 182.553V94.7497H165.979C166.699 106.003 169.362 116.582 173.968 126.487C178.575 136.392 184.959 145.093 193.12 152.59C185.083 161.292 175.614 168.281 164.714 173.558C153.813 178.836 142.158 181.834 129.75 182.553Z" fill="#444649" fill-opacity="0.2"/>
</svg>
